<svg width="118" height="120" viewBox="0 0 118 120" fill="none" xmlns="http://www.w3.org/2000/svg">
<g opacity="0.95" filter="url(#filter0_d_1_15)">
<path d="M38.44 48.77C35.36 32.77 39.84 17.07 49.37 5.34003C49.01 5.40003 48.65 5.45002 48.29 5.52002C19.56 11.05 0.750017 38.81 6.28002 67.54C11.81 96.27 39.57 115.08 68.3 109.55C81.03 107.1 91.8 100.28 99.38 90.96C71.04 95.82 43.9 77.14 38.44 48.77Z" fill="url(#paint0_linear_1_15)"/>
<path d="M108.62 44.99L97.44 43.91L90.2 52.51L87.78 41.53L77.37 37.31L87.05 31.61L87.85 20.4L96.26 27.86L107.17 25.15L102.68 35.45L108.62 44.99Z" fill="url(#paint1_linear_1_15)"/>
<path d="M93.75 75.41L86.53 74.68L81.84 80.22L80.3 73.13L73.59 70.38L79.86 66.72L80.4 59.49L85.81 64.32L92.86 62.59L89.94 69.24L93.75 75.41Z" fill="url(#paint2_linear_1_15)"/>
<path d="M72.2301 27.87L65.0101 27.15L60.3201 32.68L58.7801 25.59L52.0601 22.84L58.3301 19.19L58.8701 11.95L64.2801 16.78L71.3301 15.06L68.4101 21.7L72.2301 27.87Z" fill="url(#paint3_linear_1_15)"/>
</g>
<defs>
<filter id="filter0_d_1_15" x="0.31543" y="0.340027" width="117.305" height="119.175" filterUnits="userSpaceOnUse" color-interpolation-filters="sRGB">
<feFlood flood-opacity="0" result="BackgroundImageFix"/>
<feColorMatrix in="SourceAlpha" type="matrix" values="0 0 0 0 0 0 0 0 0 0 0 0 0 0 0 0 0 0 127 0" result="hardAlpha"/>
<feOffset dx="2" dy="2"/>
<feGaussianBlur stdDeviation="3.5"/>
<feComposite in2="hardAlpha" operator="out"/>
<feColorMatrix type="matrix" values="0 0 0 0 0.980392 0 0 0 0 0.733333 0 0 0 0 0.254902 0 0 0 0.29 0"/>
<feBlend mode="normal" in2="BackgroundImageFix" result="effect1_dropShadow_1_15"/>
<feBlend mode="normal" in="SourceGraphic" in2="effect1_dropShadow_1_15" result="shape"/>
</filter>
<linearGradient id="paint0_linear_1_15" x1="5.32002" y1="57.93" x2="99.38" y2="57.93" gradientUnits="userSpaceOnUse">
<stop stop-color="#FABB41"/>
<stop offset="0.24" stop-color="#F9B43C"/>
<stop offset="0.57" stop-color="#F8A330"/>
<stop offset="0.95" stop-color="#F7861D"/>
<stop offset="1" stop-color="#F7821A"/>
</linearGradient>
<linearGradient id="paint1_linear_1_15" x1="77.3851" y1="36.4963" x2="108.615" y2="36.3873" gradientUnits="userSpaceOnUse">
<stop stop-color="#FABB41"/>
<stop offset="0.24" stop-color="#F9B43C"/>
<stop offset="0.57" stop-color="#F8A330"/>
<stop offset="0.95" stop-color="#F7861D"/>
<stop offset="1" stop-color="#F7821A"/>
</linearGradient>
<linearGradient id="paint2_linear_1_15" x1="73.59" y1="69.85" x2="93.75" y2="69.85" gradientUnits="userSpaceOnUse">
<stop stop-color="#FABB41"/>
<stop offset="0.24" stop-color="#F9B43C"/>
<stop offset="0.57" stop-color="#F8A330"/>
<stop offset="0.95" stop-color="#F7861D"/>
<stop offset="1" stop-color="#F7821A"/>
</linearGradient>
<linearGradient id="paint3_linear_1_15" x1="52.0601" y1="22.32" x2="72.2301" y2="22.32" gradientUnits="userSpaceOnUse">
<stop stop-color="#FABB41"/>
<stop offset="0.24" stop-color="#F9B43C"/>
<stop offset="0.57" stop-color="#F8A330"/>
<stop offset="0.95" stop-color="#F7861D"/>
<stop offset="1" stop-color="#F7821A"/>
</linearGradient>
</defs>
</svg>
