<svg width="132" height="134" viewBox="0 0 132 134" fill="none" xmlns="http://www.w3.org/2000/svg">
<g filter="url(#filter0_d_1_15)">
<path d="M47.44 57.77C44.36 41.77 48.84 26.07 58.37 14.34C58.01 14.4 57.65 14.45 57.29 14.52C28.56 20.05 9.75002 47.81 15.28 76.54C20.81 105.27 48.57 124.08 77.3 118.55C90.03 116.1 100.8 109.28 108.38 99.96C80.04 104.82 52.9 86.14 47.44 57.77Z" fill="url(#paint0_linear_1_15)"/>
<path d="M117.62 53.99L106.44 52.91L99.2 61.51L96.78 50.53L86.37 46.31L96.05 40.61L96.85 29.4L105.26 36.86L116.17 34.15L111.68 44.45L117.62 53.99Z" fill="url(#paint1_linear_1_15)"/>
<path d="M102.75 84.41L95.53 83.68L90.84 89.22L89.3 82.13L82.59 79.38L88.86 75.72L89.4 68.49L94.81 73.32L101.86 71.59L98.94 78.24L102.75 84.41Z" fill="url(#paint2_linear_1_15)"/>
<path d="M81.2301 36.87L74.0101 36.15L69.3201 41.68L67.7801 34.59L61.0601 31.84L67.3301 28.19L67.8701 20.95L73.2801 25.78L80.3301 24.06L77.4101 30.7L81.2301 36.87Z" fill="url(#paint3_linear_1_15)"/>
</g>
<defs>
<filter id="filter0_d_1_15" x="0.31543" y="0.340027" width="131.305" height="133.175" filterUnits="userSpaceOnUse" color-interpolation-filters="sRGB">
<feFlood flood-opacity="0" result="BackgroundImageFix"/>
<feColorMatrix in="SourceAlpha" type="matrix" values="0 0 0 0 0 0 0 0 0 0 0 0 0 0 0 0 0 0 127 0" result="hardAlpha"/>
<feOffset/>
<feGaussianBlur stdDeviation="7"/>
<feColorMatrix type="matrix" values="0 0 0 0 0.980392 0 0 0 0 0.733333 0 0 0 0 0.254902 0 0 0 0.34 0"/>
<feBlend mode="normal" in2="BackgroundImageFix" result="effect1_dropShadow_1_15"/>
<feBlend mode="normal" in="SourceGraphic" in2="effect1_dropShadow_1_15" result="shape"/>
</filter>
<linearGradient id="paint0_linear_1_15" x1="14.32" y1="66.93" x2="108.38" y2="66.93" gradientUnits="userSpaceOnUse">
<stop stop-color="#FABB41"/>
<stop offset="0.24" stop-color="#F9B43C"/>
<stop offset="0.57" stop-color="#F8A330"/>
<stop offset="0.95" stop-color="#F7861D"/>
<stop offset="1" stop-color="#F7821A"/>
</linearGradient>
<linearGradient id="paint1_linear_1_15" x1="86.3851" y1="45.4963" x2="117.615" y2="45.3873" gradientUnits="userSpaceOnUse">
<stop stop-color="#FABB41"/>
<stop offset="0.24" stop-color="#F9B43C"/>
<stop offset="0.57" stop-color="#F8A330"/>
<stop offset="0.95" stop-color="#F7861D"/>
<stop offset="1" stop-color="#F7821A"/>
</linearGradient>
<linearGradient id="paint2_linear_1_15" x1="82.59" y1="78.85" x2="102.75" y2="78.85" gradientUnits="userSpaceOnUse">
<stop stop-color="#FABB41"/>
<stop offset="0.24" stop-color="#F9B43C"/>
<stop offset="0.57" stop-color="#F8A330"/>
<stop offset="0.95" stop-color="#F7861D"/>
<stop offset="1" stop-color="#F7821A"/>
</linearGradient>
<linearGradient id="paint3_linear_1_15" x1="61.0601" y1="31.32" x2="81.2301" y2="31.32" gradientUnits="userSpaceOnUse">
<stop stop-color="#FABB41"/>
<stop offset="0.24" stop-color="#F9B43C"/>
<stop offset="0.57" stop-color="#F8A330"/>
<stop offset="0.95" stop-color="#F7861D"/>
<stop offset="1" stop-color="#F7821A"/>
</linearGradient>
</defs>
</svg>
