<svg width="178" height="97" viewBox="0 0 178 97" fill="none" xmlns="http://www.w3.org/2000/svg">
<path d="M93.23 32.41C93.05 31.46 92.95 30.48 92.95 29.48C92.95 21.06 99.77 14.24 108.19 14.24C109.73 14.24 111.22 14.47 112.62 14.9C116.35 6.59999 124.68 0.809998 134.38 0.809998C147.19 0.809998 157.63 10.91 158.2 23.58C168.79 23.74 177.32 32.37 177.32 42.99C177.32 53.61 169.18 61.84 158.94 62.38C158.8 62.4 158.65 62.41 158.51 62.41H94.48C94.48 62.41 94.46 62.41 94.44 62.41C94.41 62.41 94.39 62.41 94.36 62.41C86.06 62.41 79.34 55.68 79.34 47.39C79.34 39.47 85.47 32.99 93.24 32.41H93.23Z" fill="url(#paint0_radial_1_7)"/>
<path d="M127.92 51.48C128.2 50.05 128.35 48.57 128.35 47.05C128.35 34.34 118.05 24.04 105.34 24.04C103.01 24.04 100.77 24.39 98.65 25.03C93.02 12.5 80.44 3.76001 65.8 3.76001C46.46 3.76001 30.69 19.01 29.84 38.13C13.86 38.38 0.97998 51.4 0.97998 67.44C0.97998 83.48 13.27 95.9 28.73 96.72C28.94 96.75 29.16 96.76 29.38 96.76H126.05C126.05 96.76 126.09 96.76 126.11 96.76C126.15 96.76 126.19 96.76 126.22 96.76C138.74 96.76 148.9 86.61 148.9 74.08C148.9 61.55 139.65 52.34 127.91 51.47L127.92 51.48Z" fill="url(#paint1_radial_1_7)"/>
<defs>
<radialGradient id="paint0_radial_1_7" cx="0" cy="0" r="1" gradientUnits="userSpaceOnUse" gradientTransform="translate(135.32 -1.12) rotate(180) scale(42.65 42.65)">
<stop stop-color="#D1CBC3"/>
<stop offset="0.35" stop-color="#C7C1B9"/>
<stop offset="0.94" stop-color="#ACA69F"/>
<stop offset="1" stop-color="#AAA49D"/>
</radialGradient>
<radialGradient id="paint1_radial_1_7" cx="0" cy="0" r="1" gradientUnits="userSpaceOnUse" gradientTransform="translate(53.45 44.54) scale(84.07 84.07)">
<stop offset="0.16" stop-color="#FEFEFE"/>
<stop offset="0.37" stop-color="#F6F5F4"/>
<stop offset="0.74" stop-color="#E2DED9"/>
<stop offset="1" stop-color="#D1CBC3"/>
</radialGradient>
</defs>
</svg>
