<svg width="192" height="111" viewBox="0 0 192 111" fill="none" xmlns="http://www.w3.org/2000/svg">
<g opacity="0.95" filter="url(#filter0_d_1_7)">
<path d="M98.23 37.41C98.05 36.46 97.95 35.48 97.95 34.48C97.95 26.06 104.77 19.24 113.19 19.24C114.73 19.24 116.22 19.47 117.62 19.9C121.35 11.6 129.68 5.81 139.38 5.81C152.19 5.81 162.63 15.91 163.2 28.58C173.79 28.74 182.32 37.37 182.32 47.99C182.32 58.61 174.18 66.84 163.94 67.38C163.8 67.4 163.65 67.41 163.51 67.41H99.48C99.48 67.41 99.46 67.41 99.44 67.41C99.41 67.41 99.39 67.41 99.36 67.41C91.06 67.41 84.34 60.68 84.34 52.39C84.34 44.47 90.47 37.99 98.24 37.41H98.23Z" fill="url(#paint0_radial_1_7)"/>
<path d="M132.92 56.48C133.2 55.05 133.35 53.57 133.35 52.05C133.35 39.34 123.05 29.04 110.34 29.04C108.01 29.04 105.77 29.39 103.65 30.03C98.02 17.5 85.44 8.76001 70.8 8.76001C51.46 8.76001 35.69 24.01 34.84 43.13C18.86 43.38 5.97998 56.4 5.97998 72.44C5.97998 88.48 18.27 100.9 33.73 101.72C33.94 101.75 34.16 101.76 34.38 101.76H131.05C131.05 101.76 131.09 101.76 131.11 101.76C131.15 101.76 131.19 101.76 131.22 101.76C143.74 101.76 153.9 91.61 153.9 79.08C153.9 66.55 144.65 57.34 132.91 56.47L132.92 56.48Z" fill="url(#paint1_radial_1_7)"/>
</g>
<defs>
<filter id="filter0_d_1_7" x="0.97998" y="0.809998" width="190.34" height="109.95" filterUnits="userSpaceOnUse" color-interpolation-filters="sRGB">
<feFlood flood-opacity="0" result="BackgroundImageFix"/>
<feColorMatrix in="SourceAlpha" type="matrix" values="0 0 0 0 0 0 0 0 0 0 0 0 0 0 0 0 0 0 127 0" result="hardAlpha"/>
<feOffset dx="2" dy="2"/>
<feGaussianBlur stdDeviation="3.5"/>
<feComposite in2="hardAlpha" operator="out"/>
<feColorMatrix type="matrix" values="0 0 0 0 0.6521 0 0 0 0 0.6521 0 0 0 0 0.6521 0 0 0 0.29 0"/>
<feBlend mode="normal" in2="BackgroundImageFix" result="effect1_dropShadow_1_7"/>
<feBlend mode="normal" in="SourceGraphic" in2="effect1_dropShadow_1_7" result="shape"/>
</filter>
<radialGradient id="paint0_radial_1_7" cx="0" cy="0" r="1" gradientUnits="userSpaceOnUse" gradientTransform="translate(140.32 3.88) rotate(180) scale(42.65 42.65)">
<stop stop-color="#D1CBC3"/>
<stop offset="0.35" stop-color="#C7C1B9"/>
<stop offset="0.94" stop-color="#ACA69F"/>
<stop offset="1" stop-color="#AAA49D"/>
</radialGradient>
<radialGradient id="paint1_radial_1_7" cx="0" cy="0" r="1" gradientUnits="userSpaceOnUse" gradientTransform="translate(58.45 49.54) scale(84.07 84.07)">
<stop offset="0.16" stop-color="#FEFEFE"/>
<stop offset="0.37" stop-color="#F6F5F4"/>
<stop offset="0.74" stop-color="#E2DED9"/>
<stop offset="1" stop-color="#D1CBC3"/>
</radialGradient>
</defs>
</svg>
