<svg width="177" height="185" viewBox="0 0 177 185" fill="none" xmlns="http://www.w3.org/2000/svg">
<g filter="url(#filter0_d_2_106)">
<path d="M119.412 44.7C117.232 33.39 120.402 22.29 127.142 14C126.892 14.04 126.632 14.08 126.382 14.13C106.072 18.04 92.772 37.67 96.682 57.98C100.592 78.29 120.222 91.59 140.532 87.68C149.532 85.95 157.142 81.13 162.502 74.54C142.462 77.97 123.272 64.77 119.422 44.71L119.412 44.7Z" fill="url(#paint0_linear_2_106)"/>
</g>
<path d="M126.94 78.67C127.22 77.24 127.37 75.76 127.37 74.24C127.37 61.53 117.07 51.23 104.36 51.23C102.03 51.23 99.79 51.58 97.67 52.22C92.04 39.69 79.46 30.95 64.82 30.95C45.48 30.95 29.71 46.2 28.86 65.32C12.88 65.57 0 78.59 0 94.63C0 110.67 12.29 123.09 27.75 123.91C27.96 123.94 28.18 123.95 28.4 123.95H125.07C125.07 123.95 125.11 123.95 125.13 123.95C125.17 123.95 125.21 123.95 125.24 123.95C137.76 123.95 147.92 113.8 147.92 101.27C147.92 88.74 138.67 79.53 126.93 78.66L126.94 78.67Z" fill="url(#paint1_radial_2_106)"/>
<path d="M45.6 158.41C45.6 162.42 42.3501 165.68 38.3301 165.68C34.3101 165.68 31.0601 162.43 31.0601 158.41C31.0601 154.39 38.3301 141.93 38.3301 141.93C38.3301 141.93 45.6 154.39 45.6 158.41Z" fill="url(#paint2_radial_2_106)"/>
<path d="M107.8 177.13C107.8 181.14 104.55 184.4 100.53 184.4C96.51 184.4 93.26 181.15 93.26 177.13C93.26 173.11 100.53 160.65 100.53 160.65C100.53 160.65 107.8 173.11 107.8 177.13Z" fill="url(#paint3_radial_2_106)"/>
<path d="M78.87 141.45C78.87 143.53 77.19 145.21 75.11 145.21C73.03 145.21 71.35 143.53 71.35 141.45C71.35 139.37 75.11 132.93 75.11 132.93C75.11 132.93 78.87 139.38 78.87 141.45Z" fill="url(#paint4_radial_2_106)"/>
<path d="M137.36 148C137.36 150.08 135.68 151.76 133.6 151.76C131.52 151.76 129.84 150.08 129.84 148C129.84 145.92 133.6 139.48 133.6 139.48C133.6 139.48 137.36 145.93 137.36 148Z" fill="url(#paint5_radial_2_106)"/>
<defs>
<filter id="filter0_d_2_106" x="82" y="0" width="94.502" height="102.362" filterUnits="userSpaceOnUse" color-interpolation-filters="sRGB">
<feFlood flood-opacity="0" result="BackgroundImageFix"/>
<feColorMatrix in="SourceAlpha" type="matrix" values="0 0 0 0 0 0 0 0 0 0 0 0 0 0 0 0 0 0 127 0" result="hardAlpha"/>
<feOffset/>
<feGaussianBlur stdDeviation="7"/>
<feColorMatrix type="matrix" values="0 0 0 0 0.980392 0 0 0 0 0.733333 0 0 0 0 0.254902 0 0 0 0.34 0"/>
<feBlend mode="normal" in2="BackgroundImageFix" result="effect1_dropShadow_2_106"/>
<feBlend mode="normal" in="SourceGraphic" in2="effect1_dropShadow_2_106" result="shape"/>
</filter>
<linearGradient id="paint0_linear_2_106" x1="95.992" y1="51.17" x2="162.492" y2="51.17" gradientUnits="userSpaceOnUse">
<stop stop-color="#FABB41"/>
<stop offset="0.24" stop-color="#F9B43C"/>
<stop offset="0.57" stop-color="#F8A330"/>
<stop offset="0.95" stop-color="#F7861D"/>
<stop offset="1" stop-color="#F7821A"/>
</linearGradient>
<radialGradient id="paint1_radial_2_106" cx="0" cy="0" r="1" gradientUnits="userSpaceOnUse" gradientTransform="translate(52.46 71.73) scale(84.07 84.07)">
<stop offset="0.16" stop-color="#FEFEFE"/>
<stop offset="0.37" stop-color="#F6F5F4"/>
<stop offset="0.74" stop-color="#E2DED9"/>
<stop offset="1" stop-color="#D1CBC3"/>
</radialGradient>
<radialGradient id="paint2_radial_2_106" cx="0" cy="0" r="1" gradientUnits="userSpaceOnUse" gradientTransform="translate(38.34 153.81) scale(9.83998 9.84)">
<stop stop-color="#7DBAC7"/>
<stop offset="0.45" stop-color="#7AB8C5"/>
<stop offset="0.7" stop-color="#72B4C1"/>
<stop offset="0.89" stop-color="#65AEB9"/>
<stop offset="1" stop-color="#59A8B2"/>
</radialGradient>
<radialGradient id="paint3_radial_2_106" cx="0" cy="0" r="1" gradientUnits="userSpaceOnUse" gradientTransform="translate(100.53 172.53) scale(9.83998 9.84)">
<stop stop-color="#7DBAC7"/>
<stop offset="0.45" stop-color="#7AB8C5"/>
<stop offset="0.7" stop-color="#72B4C1"/>
<stop offset="0.89" stop-color="#65AEB9"/>
<stop offset="1" stop-color="#59A8B2"/>
</radialGradient>
<radialGradient id="paint4_radial_2_106" cx="0" cy="0" r="1" gradientUnits="userSpaceOnUse" gradientTransform="translate(75.11 139.07) scale(5.09001 5.09001)">
<stop stop-color="#7DBAC7"/>
<stop offset="0.45" stop-color="#7AB8C5"/>
<stop offset="0.7" stop-color="#72B4C1"/>
<stop offset="0.89" stop-color="#65AEB9"/>
<stop offset="1" stop-color="#59A8B2"/>
</radialGradient>
<radialGradient id="paint5_radial_2_106" cx="0" cy="0" r="1" gradientUnits="userSpaceOnUse" gradientTransform="translate(133.6 145.62) scale(5.09001 5.09001)">
<stop stop-color="#7DBAC7"/>
<stop offset="0.45" stop-color="#7AB8C5"/>
<stop offset="0.7" stop-color="#72B4C1"/>
<stop offset="0.89" stop-color="#65AEB9"/>
<stop offset="1" stop-color="#59A8B2"/>
</radialGradient>
</defs>
</svg>
