<svg width="181" height="92" viewBox="0 0 181 92" fill="none" xmlns="http://www.w3.org/2000/svg">
<path d="M92.15 18.19C92.15 10.23 98.6 3.78003 106.56 3.78003C114.52 3.78003 120.97 10.23 120.97 18.19C120.97 26.15 114.52 32.6 106.56 32.6H29.81" stroke="url(#paint0_linear_1_51)" stroke-width="6" stroke-miterlimit="10" stroke-linecap="round"/>
<path d="M126.21 75.06C126.21 82.38 132.14 88.32 139.47 88.32C146.8 88.32 152.73 82.39 152.73 75.06C152.73 67.73 146.8 61.8 139.47 61.8H68.86" stroke="url(#paint1_linear_1_51)" stroke-width="6" stroke-miterlimit="10" stroke-linecap="round"/>
<path d="M140.33 28.38C140.33 17.98 148.76 9.54999 159.16 9.54999C169.56 9.54999 177.99 17.98 177.99 28.38C177.99 38.78 169.56 47.21 159.16 47.21H3.54999" stroke="url(#paint2_linear_1_51)" stroke-width="6" stroke-miterlimit="10" stroke-linecap="round"/>
<defs>
<linearGradient id="paint0_linear_1_51" x1="26.81" y1="18.19" x2="123.97" y2="18.19" gradientUnits="userSpaceOnUse">
<stop offset="0.16" stop-color="#D1CBC3"/>
<stop offset="0.45" stop-color="#C7C1B9"/>
<stop offset="0.95" stop-color="#ACA69F"/>
<stop offset="1" stop-color="#AAA49D"/>
</linearGradient>
<linearGradient id="paint1_linear_1_51" x1="65.86" y1="75.06" x2="155.72" y2="75.06" gradientUnits="userSpaceOnUse">
<stop offset="0.16" stop-color="#D1CBC3"/>
<stop offset="0.45" stop-color="#C7C1B9"/>
<stop offset="0.95" stop-color="#ACA69F"/>
<stop offset="1" stop-color="#AAA49D"/>
</linearGradient>
<linearGradient id="paint2_linear_1_51" x1="0.539988" y1="28.38" x2="180.98" y2="28.38" gradientUnits="userSpaceOnUse">
<stop offset="0.16" stop-color="#D1CBC3"/>
<stop offset="0.45" stop-color="#C7C1B9"/>
<stop offset="0.95" stop-color="#ACA69F"/>
<stop offset="1" stop-color="#AAA49D"/>
</linearGradient>
</defs>
</svg>
