<svg width="164" height="134" viewBox="0 0 164 134" fill="none" xmlns="http://www.w3.org/2000/svg">
<g opacity="0.95" filter="url(#filter0_d_1_20)">
<path d="M133.54 79.71C133.82 78.28 133.97 76.8 133.97 75.28C133.97 62.57 123.67 52.27 110.96 52.27C108.63 52.27 106.39 52.62 104.27 53.26C98.64 40.73 86.06 31.99 71.42 31.99C52.08 31.99 36.31 47.24 35.46 66.36C19.48 66.61 6.59998 79.63 6.59998 95.67C6.59998 111.71 18.89 124.13 34.35 124.95C34.56 124.98 34.78 124.99 35 124.99H131.67C131.67 124.99 131.71 124.99 131.73 124.99C131.77 124.99 131.81 124.99 131.84 124.99C144.36 124.99 154.52 114.84 154.52 102.31C154.52 89.78 145.27 80.57 133.53 79.7L133.54 79.71Z" fill="url(#paint0_radial_1_20)"/>
<g filter="url(#filter1_d_1_20)">
<path d="M37.63 45.15C35.45 33.84 38.62 22.74 45.36 14.45C45.11 14.49 44.85 14.53 44.6 14.58C24.29 18.49 10.99 38.12 14.9 58.43C18.81 78.74 38.44 92.04 58.75 88.13C67.75 86.4 75.36 81.58 80.72 74.99C60.68 78.42 41.49 65.22 37.64 45.16L37.63 45.15Z" fill="url(#paint1_linear_1_20)"/>
</g>
</g>
<defs>
<filter id="filter0_d_1_20" x="1.59998" y="9.45001" width="161.92" height="124.54" filterUnits="userSpaceOnUse" color-interpolation-filters="sRGB">
<feFlood flood-opacity="0" result="BackgroundImageFix"/>
<feColorMatrix in="SourceAlpha" type="matrix" values="0 0 0 0 0 0 0 0 0 0 0 0 0 0 0 0 0 0 127 0" result="hardAlpha"/>
<feOffset dx="2" dy="2"/>
<feGaussianBlur stdDeviation="3.5"/>
<feComposite in2="hardAlpha" operator="out"/>
<feColorMatrix type="matrix" values="0 0 0 0 0.6521 0 0 0 0 0.6521 0 0 0 0 0.6521 0 0 0 0.29 0"/>
<feBlend mode="normal" in2="BackgroundImageFix" result="effect1_dropShadow_1_20"/>
<feBlend mode="normal" in="SourceGraphic" in2="effect1_dropShadow_1_20" result="shape"/>
</filter>
<filter id="filter1_d_1_20" x="0.217957" y="0.450012" width="94.502" height="102.362" filterUnits="userSpaceOnUse" color-interpolation-filters="sRGB">
<feFlood flood-opacity="0" result="BackgroundImageFix"/>
<feColorMatrix in="SourceAlpha" type="matrix" values="0 0 0 0 0 0 0 0 0 0 0 0 0 0 0 0 0 0 127 0" result="hardAlpha"/>
<feOffset/>
<feGaussianBlur stdDeviation="7"/>
<feColorMatrix type="matrix" values="0 0 0 0 0.980392 0 0 0 0 0.733333 0 0 0 0 0.254902 0 0 0 0.34 0"/>
<feBlend mode="normal" in2="BackgroundImageFix" result="effect1_dropShadow_1_20"/>
<feBlend mode="normal" in="SourceGraphic" in2="effect1_dropShadow_1_20" result="shape"/>
</filter>
<radialGradient id="paint0_radial_1_20" cx="0" cy="0" r="1" gradientUnits="userSpaceOnUse" gradientTransform="translate(59.06 72.77) scale(84.07 84.07)">
<stop offset="0.16" stop-color="#FEFEFE"/>
<stop offset="0.37" stop-color="#F6F5F4"/>
<stop offset="0.74" stop-color="#E2DED9"/>
<stop offset="1" stop-color="#D1CBC3"/>
</radialGradient>
<linearGradient id="paint1_linear_1_20" x1="14.21" y1="51.62" x2="80.71" y2="51.62" gradientUnits="userSpaceOnUse">
<stop stop-color="#FABB41"/>
<stop offset="0.24" stop-color="#F9B43C"/>
<stop offset="0.57" stop-color="#F8A330"/>
<stop offset="0.95" stop-color="#F7861D"/>
<stop offset="1" stop-color="#F7821A"/>
</linearGradient>
</defs>
</svg>
