<svg width="173" height="132" viewBox="0 0 173 132" fill="none" xmlns="http://www.w3.org/2000/svg">
<g opacity="0.95" filter="url(#filter0_d_1_10)">
<g filter="url(#filter1_d_1_10)">
<path d="M117.69 91.12L107.57 81.05L93.3401 79.83L92.0601 65.61L81.9401 55.53L90.11 43.81L88.8401 29.59L102.62 25.86L110.79 14.14L123.75 20.15L137.54 16.43L143.6 29.36L156.55 35.37L152.89 49.17L158.95 62.1L147.27 70.32L143.6 84.12L129.37 82.91L117.69 91.12Z" fill="url(#paint0_linear_1_10)"/>
</g>
<g filter="url(#filter2_d_1_10)">
<path d="M120.42 82.44C136.851 82.44 150.17 69.1205 150.17 52.69C150.17 36.2595 136.851 22.94 120.42 22.94C103.99 22.94 90.67 36.2595 90.67 52.69C90.67 69.1205 103.99 82.44 120.42 82.44Z" fill="url(#paint1_linear_1_10)"/>
</g>
<path d="M132.09 77.38C132.37 75.95 132.52 74.47 132.52 72.95C132.52 60.24 122.22 49.94 109.51 49.94C107.18 49.94 104.94 50.29 102.82 50.93C97.19 38.4 84.61 29.66 69.97 29.66C50.63 29.66 34.86 44.91 34.01 64.03C18.03 64.28 5.15002 77.3 5.15002 93.34C5.15002 109.38 17.44 121.8 32.9 122.62C33.11 122.65 33.33 122.66 33.55 122.66H130.22C130.22 122.66 130.26 122.66 130.28 122.66C130.32 122.66 130.36 122.66 130.39 122.66C142.91 122.66 153.07 112.51 153.07 99.98C153.07 87.45 143.82 78.24 132.08 77.37L132.09 77.38Z" fill="url(#paint2_radial_1_10)"/>
</g>
<defs>
<filter id="filter0_d_1_10" x="0.150024" y="9.14001" width="167.8" height="122.52" filterUnits="userSpaceOnUse" color-interpolation-filters="sRGB">
<feFlood flood-opacity="0" result="BackgroundImageFix"/>
<feColorMatrix in="SourceAlpha" type="matrix" values="0 0 0 0 0 0 0 0 0 0 0 0 0 0 0 0 0 0 127 0" result="hardAlpha"/>
<feOffset dx="2" dy="2"/>
<feGaussianBlur stdDeviation="3.5"/>
<feComposite in2="hardAlpha" operator="out"/>
<feColorMatrix type="matrix" values="0 0 0 0 0.980392 0 0 0 0 0.733333 0 0 0 0 0.254902 0 0 0 0.29 0"/>
<feBlend mode="normal" in2="BackgroundImageFix" result="effect1_dropShadow_1_10"/>
<feBlend mode="normal" in="SourceGraphic" in2="effect1_dropShadow_1_10" result="shape"/>
</filter>
<filter id="filter1_d_1_10" x="67.9401" y="0.140015" width="105.01" height="104.98" filterUnits="userSpaceOnUse" color-interpolation-filters="sRGB">
<feFlood flood-opacity="0" result="BackgroundImageFix"/>
<feColorMatrix in="SourceAlpha" type="matrix" values="0 0 0 0 0 0 0 0 0 0 0 0 0 0 0 0 0 0 127 0" result="hardAlpha"/>
<feOffset/>
<feGaussianBlur stdDeviation="7"/>
<feColorMatrix type="matrix" values="0 0 0 0 0.980392 0 0 0 0 0.733333 0 0 0 0 0.254902 0 0 0 0.34 0"/>
<feBlend mode="normal" in2="BackgroundImageFix" result="effect1_dropShadow_1_10"/>
<feBlend mode="normal" in="SourceGraphic" in2="effect1_dropShadow_1_10" result="shape"/>
</filter>
<filter id="filter2_d_1_10" x="82.67" y="13.94" width="79.5" height="79.5" filterUnits="userSpaceOnUse" color-interpolation-filters="sRGB">
<feFlood flood-opacity="0" result="BackgroundImageFix"/>
<feColorMatrix in="SourceAlpha" type="matrix" values="0 0 0 0 0 0 0 0 0 0 0 0 0 0 0 0 0 0 127 0" result="hardAlpha"/>
<feOffset dx="2" dy="1"/>
<feGaussianBlur stdDeviation="5"/>
<feColorMatrix type="matrix" values="0 0 0 0 0.239216 0 0 0 0 0.152941 0 0 0 0 0.0352941 0 0 0 0.32 0"/>
<feBlend mode="normal" in2="BackgroundImageFix" result="effect1_dropShadow_1_10"/>
<feBlend mode="normal" in="SourceGraphic" in2="effect1_dropShadow_1_10" result="shape"/>
</filter>
<linearGradient id="paint0_linear_1_10" x1="93.7392" y1="24.9024" x2="132.566" y2="65.6032" gradientUnits="userSpaceOnUse">
<stop stop-color="#FABB41"/>
<stop offset="0.24" stop-color="#F9B43C"/>
<stop offset="0.57" stop-color="#F8A330"/>
<stop offset="0.95" stop-color="#F7861D"/>
<stop offset="1" stop-color="#F7821A"/>
</linearGradient>
<linearGradient id="paint1_linear_1_10" x1="93.1387" y1="40.8586" x2="147.75" y2="64.5024" gradientUnits="userSpaceOnUse">
<stop stop-color="white"/>
<stop offset="0.05" stop-color="#FFFBF5"/>
<stop offset="0.22" stop-color="#FFF1D3"/>
<stop offset="0.4" stop-color="#FFE9BA"/>
<stop offset="0.59" stop-color="#FFE3A7"/>
<stop offset="0.79" stop-color="#FFE09C"/>
<stop offset="1" stop-color="#FFDF99"/>
</linearGradient>
<radialGradient id="paint2_radial_1_10" cx="0" cy="0" r="1" gradientUnits="userSpaceOnUse" gradientTransform="translate(57.61 70.44) scale(84.07 84.07)">
<stop offset="0.16" stop-color="#FEFEFE"/>
<stop offset="0.43" stop-color="#FBFBFB"/>
<stop offset="0.62" stop-color="#F4F3F1"/>
<stop offset="0.79" stop-color="#E8E5E2"/>
<stop offset="0.95" stop-color="#D8D2CC"/>
<stop offset="1" stop-color="#D1CBC3"/>
</radialGradient>
</defs>
</svg>
