<svg width="149" height="154" viewBox="0 0 149 154" fill="none" xmlns="http://www.w3.org/2000/svg">
<path d="M60.44 132.54H58.32L59.81 131.18C59.96 131.04 59.97 130.81 59.83 130.66C59.69 130.51 59.46 130.5 59.31 130.64L57.22 132.54H53.36C53.24 131.8 52.94 131.13 52.5 130.57L55.31 127.76L58.12 127.63C58.32 127.63 58.48 127.45 58.47 127.25C58.47 127.05 58.29 126.89 58.09 126.9L56.09 127L57.58 125.51C57.82 125.27 57.82 124.89 57.58 124.65C57.34 124.41 56.96 124.41 56.72 124.65L55.22 126.15L55.32 124.12C55.32 123.92 55.17 123.75 54.97 123.74C54.76 123.74 54.6 123.89 54.59 124.09L54.46 126.92L51.64 129.74C51.07 129.33 50.39 129.06 49.66 128.98V124.95L51.54 122.88C51.68 122.73 51.66 122.5 51.52 122.36C51.37 122.22 51.14 122.24 51 122.38L49.66 123.86V121.76C49.66 121.42 49.39 121.15 49.05 121.15C48.71 121.15 48.44 121.42 48.44 121.76V123.88L47.08 122.39C46.94 122.24 46.71 122.23 46.56 122.37C46.41 122.51 46.4 122.74 46.54 122.89L48.44 124.98V129.03C47.77 129.15 47.15 129.42 46.63 129.81L43.73 126.91L43.6 124.1C43.6 123.9 43.43 123.74 43.22 123.75C43.02 123.75 42.86 123.93 42.87 124.13L42.97 126.13L41.44 124.6C41.2 124.36 40.82 124.36 40.58 124.6C40.34 124.84 40.34 125.22 40.58 125.46L42.12 127L40.09 126.9C39.88 126.9 39.72 127.05 39.71 127.25C39.71 127.45 39.86 127.62 40.06 127.63L42.89 127.76L45.77 130.64C45.36 131.19 45.08 131.83 44.97 132.54H40.92L38.83 130.64C38.68 130.5 38.45 130.52 38.31 130.66C38.17 130.81 38.19 131.04 38.33 131.18L39.82 132.54H37.65C37.31 132.54 37.04 132.81 37.04 133.15C37.04 133.49 37.31 133.76 37.65 133.76H39.81L38.33 135.1C38.18 135.24 38.17 135.47 38.31 135.62C38.38 135.7 38.48 135.74 38.58 135.74C38.67 135.74 38.76 135.71 38.83 135.64L40.9 133.76H44.95C45.04 134.47 45.31 135.12 45.7 135.67L42.88 138.49L40.05 138.62C39.85 138.62 39.69 138.8 39.7 139C39.7 139.2 39.87 139.35 40.06 139.35C40.06 139.35 40.07 139.35 40.08 139.35L42.11 139.25L40.57 140.79C40.33 141.03 40.33 141.41 40.57 141.65C40.69 141.77 40.84 141.83 41 141.83C41.16 141.83 41.31 141.77 41.43 141.65L42.96 140.12L42.86 142.12C42.86 142.32 43.01 142.49 43.21 142.5C43.21 142.5 43.22 142.5 43.23 142.5C43.42 142.5 43.59 142.35 43.59 142.15L43.72 139.34L46.53 136.53C47.07 136.96 47.72 137.26 48.43 137.38V141.26L46.53 143.35C46.39 143.5 46.41 143.73 46.55 143.87C46.62 143.93 46.71 143.97 46.8 143.97C46.9 143.97 47 143.93 47.07 143.85L48.43 142.36V144.53C48.43 144.87 48.7 145.14 49.04 145.14C49.38 145.14 49.65 144.87 49.65 144.53V142.37L50.99 143.85C51.06 143.93 51.16 143.97 51.26 143.97C51.35 143.97 51.44 143.94 51.51 143.87C51.66 143.73 51.67 143.5 51.53 143.35L49.65 141.28V137.42C50.42 137.33 51.13 137.03 51.72 136.59L54.45 139.32L54.58 142.15C54.58 142.35 54.75 142.5 54.94 142.5C54.94 142.5 54.95 142.5 54.96 142.5C55.16 142.5 55.32 142.32 55.31 142.12L55.21 140.09L56.71 141.59C56.83 141.71 56.98 141.77 57.14 141.77C57.3 141.77 57.45 141.71 57.57 141.59C57.81 141.35 57.81 140.97 57.57 140.73L56.08 139.24L58.09 139.34C58.09 139.34 58.1 139.34 58.11 139.34C58.3 139.34 58.47 139.19 58.47 138.99C58.47 138.79 58.32 138.62 58.12 138.61L55.31 138.48L52.57 135.74C52.99 135.17 53.28 134.49 53.38 133.76H57.24L59.31 135.64C59.38 135.7 59.47 135.74 59.56 135.74C59.66 135.74 59.76 135.7 59.83 135.62C59.97 135.47 59.95 135.24 59.81 135.1L58.33 133.76H60.43C60.77 133.76 61.04 133.49 61.04 133.15C61.04 132.81 60.77 132.54 60.43 132.54H60.44ZM52.64 132.54H50.55L52 131.09C52.32 131.51 52.54 132 52.64 132.54ZM51.11 130.26L49.66 131.71V129.71C50.19 129.78 50.69 129.97 51.11 130.26ZM48.44 129.75V131.6L47.15 130.31C47.53 130.04 47.97 129.85 48.44 129.75ZM46.29 131.17L47.67 132.55H45.71C45.81 132.05 46.01 131.58 46.3 131.17H46.29ZM45.69 133.76H47.61L46.22 135.15C45.95 134.74 45.76 134.27 45.68 133.76H45.69ZM47.06 136.03L48.44 134.65V136.66C47.93 136.55 47.46 136.33 47.06 136.03ZM49.66 136.7V134.54L51.21 136.09C50.76 136.41 50.23 136.62 49.66 136.7ZM52.07 135.22L50.61 133.76H52.66C52.57 134.3 52.37 134.79 52.07 135.22Z" fill="url(#paint0_radial_1_55)"/>
<path d="M127.51 114.64H124.72L126.69 112.85C126.89 112.67 126.9 112.37 126.72 112.17C126.54 111.97 126.24 111.96 126.04 112.14L123.29 114.64H118.21C118.06 113.67 117.66 112.78 117.08 112.04L120.79 108.33L124.49 108.15C124.76 108.14 124.96 107.91 124.95 107.65C124.94 107.38 124.72 107.18 124.45 107.19L121.81 107.32L123.78 105.35C124.09 105.04 124.09 104.53 123.78 104.21C123.47 103.9 122.96 103.9 122.64 104.21L120.66 106.19L120.79 103.52C120.8 103.25 120.6 103.03 120.33 103.02C120.06 103.01 119.84 103.21 119.83 103.48L119.65 107.21L115.93 110.93C115.18 110.39 114.29 110.04 113.32 109.93V104.62L115.8 101.89C115.98 101.69 115.96 101.39 115.77 101.21C115.57 101.03 115.27 101.05 115.09 101.24L113.32 103.19V100.42C113.32 99.98 112.96 99.62 112.52 99.62C112.08 99.62 111.72 99.98 111.72 100.42V103.21L109.93 101.24C109.75 101.04 109.45 101.03 109.25 101.21C109.05 101.39 109.04 101.69 109.22 101.89L111.72 104.64V109.98C110.84 110.13 110.03 110.49 109.33 111.01L105.51 107.19L105.33 103.49C105.32 103.22 105.1 103.02 104.83 103.03C104.56 103.04 104.36 103.27 104.37 103.53L104.5 106.17L102.48 104.15C102.17 103.84 101.66 103.84 101.34 104.15C101.03 104.46 101.03 104.97 101.34 105.29L103.37 107.32L100.7 107.19C100.42 107.18 100.21 107.38 100.2 107.65C100.19 107.92 100.39 108.14 100.66 108.15L104.39 108.33L108.19 112.13C107.65 112.85 107.28 113.7 107.13 114.63H101.79L99.04 112.13C98.84 111.95 98.54 111.97 98.36 112.16C98.18 112.36 98.2 112.66 98.39 112.84L100.36 114.63H97.5C97.06 114.63 96.7 114.99 96.7 115.43C96.7 115.87 97.06 116.23 97.5 116.23H100.34L98.39 118C98.19 118.18 98.18 118.48 98.36 118.68C98.46 118.78 98.59 118.84 98.72 118.84C98.84 118.84 98.95 118.8 99.04 118.71L101.77 116.23H107.11C107.23 117.16 107.58 118.02 108.1 118.75L104.39 122.46L100.66 122.64C100.39 122.65 100.19 122.88 100.2 123.14C100.21 123.4 100.43 123.6 100.68 123.6H100.7L103.37 123.47L101.34 125.5C101.03 125.81 101.03 126.32 101.34 126.64C101.5 126.8 101.7 126.88 101.91 126.88C102.12 126.88 102.32 126.8 102.48 126.64L104.5 124.62L104.37 127.26C104.36 127.53 104.56 127.75 104.83 127.76H104.85C105.11 127.76 105.32 127.56 105.33 127.3L105.51 123.6L109.21 119.9C109.93 120.46 110.78 120.86 111.72 121.02V126.13L109.22 128.88C109.04 129.08 109.06 129.38 109.25 129.56C109.34 129.64 109.46 129.69 109.57 129.69C109.7 129.69 109.83 129.64 109.93 129.53L111.72 127.56V130.42C111.72 130.86 112.08 131.22 112.52 131.22C112.96 131.22 113.32 130.86 113.32 130.42V127.58L115.09 129.53C115.19 129.63 115.32 129.69 115.45 129.69C115.57 129.69 115.68 129.65 115.77 129.56C115.97 129.38 115.98 129.08 115.8 128.88L113.32 126.15V121.07C114.34 120.95 115.27 120.56 116.05 119.97L119.65 123.57L119.83 127.3C119.84 127.56 120.06 127.76 120.31 127.76H120.33C120.6 127.75 120.8 127.52 120.79 127.26L120.66 124.59L122.64 126.57C122.8 126.73 123 126.81 123.21 126.81C123.42 126.81 123.62 126.73 123.78 126.57C124.09 126.26 124.09 125.75 123.78 125.43L121.81 123.46L124.45 123.59H124.47C124.73 123.59 124.94 123.39 124.95 123.13C124.96 122.86 124.76 122.64 124.49 122.63L120.79 122.45L117.18 118.84C117.74 118.09 118.11 117.2 118.24 116.23H123.32L126.05 118.71C126.14 118.79 126.26 118.84 126.37 118.84C126.5 118.84 126.63 118.79 126.73 118.68C126.91 118.48 126.89 118.18 126.7 118L124.75 116.23H127.52C127.96 116.23 128.32 115.87 128.32 115.43C128.32 114.99 127.96 114.63 127.52 114.63L127.51 114.64ZM117.24 114.64H114.49L116.4 112.73C116.82 113.28 117.11 113.93 117.25 114.64H117.24ZM115.23 111.63L113.31 113.55V110.91C114.01 111.01 114.66 111.26 115.23 111.63ZM111.71 110.96V113.4L110.01 111.7C110.51 111.35 111.09 111.09 111.71 110.96ZM108.87 112.83L110.68 114.64H108.09C108.22 113.97 108.49 113.36 108.86 112.83H108.87ZM108.07 116.24H110.61L108.78 118.07C108.42 117.53 108.18 116.91 108.07 116.24ZM109.88 119.24L111.7 117.42V120.07C111.03 119.93 110.41 119.64 109.88 119.24ZM113.31 120.12V117.27L115.35 119.31C114.76 119.73 114.06 120.01 113.31 120.12ZM116.48 118.17L114.55 116.24H117.25C117.14 116.95 116.87 117.6 116.47 118.17H116.48Z" fill="url(#paint1_radial_1_55)"/>
<path d="M80.43 109.71H79.22L80.07 108.93C80.16 108.85 80.16 108.72 80.08 108.64C80 108.55 79.87 108.55 79.79 108.63L78.6 109.71H76.4C76.33 109.29 76.16 108.91 75.91 108.59L77.51 106.99L79.11 106.91C79.23 106.91 79.31 106.81 79.31 106.69C79.31 106.57 79.21 106.49 79.09 106.49L77.95 106.54L78.8 105.69C78.94 105.55 78.94 105.33 78.8 105.2C78.66 105.06 78.44 105.06 78.31 105.2L77.45 106.06L77.5 104.9C77.5 104.78 77.42 104.69 77.3 104.68C77.18 104.68 77.09 104.76 77.08 104.88L77 106.49L75.39 108.1C75.06 107.87 74.68 107.71 74.26 107.67V105.37L75.34 104.19C75.42 104.1 75.41 103.97 75.33 103.9C75.25 103.82 75.11 103.83 75.04 103.91L74.27 104.75V103.55C74.27 103.36 74.11 103.2 73.92 103.2C73.73 103.2 73.57 103.36 73.57 103.55V104.76L72.79 103.91C72.71 103.82 72.58 103.82 72.5 103.9C72.41 103.98 72.41 104.11 72.49 104.19L73.57 105.38V107.69C73.19 107.76 72.84 107.91 72.54 108.13L70.89 106.48L70.81 104.88C70.81 104.76 70.71 104.68 70.59 104.68C70.47 104.68 70.39 104.78 70.39 104.9L70.44 106.04L69.57 105.17C69.43 105.03 69.21 105.03 69.08 105.17C68.94 105.31 68.94 105.53 69.08 105.66L69.96 106.54L68.8 106.49C68.68 106.49 68.59 106.57 68.58 106.69C68.58 106.81 68.66 106.9 68.78 106.91L70.39 106.99L72.04 108.64C71.81 108.95 71.64 109.32 71.58 109.72H69.27L68.08 108.64C67.99 108.56 67.86 108.57 67.79 108.65C67.71 108.74 67.72 108.87 67.8 108.94L68.65 109.72H67.41C67.22 109.72 67.06 109.88 67.06 110.07C67.06 110.26 67.22 110.42 67.41 110.42H68.64L67.8 111.19C67.71 111.27 67.71 111.4 67.79 111.48C67.83 111.53 67.89 111.55 67.94 111.55C67.99 111.55 68.04 111.53 68.08 111.5L69.26 110.42H71.57C71.62 110.82 71.77 111.19 72 111.51L70.39 113.12L68.78 113.2C68.66 113.2 68.58 113.3 68.58 113.42C68.58 113.53 68.68 113.62 68.79 113.62C68.79 113.62 68.79 113.62 68.8 113.62L69.96 113.56L69.08 114.44C68.94 114.58 68.94 114.8 69.08 114.93C69.15 115 69.24 115.03 69.33 115.03C69.42 115.03 69.51 115 69.58 114.93L70.45 114.06L70.4 115.2C70.4 115.32 70.48 115.41 70.6 115.42C70.6 115.42 70.6 115.42 70.61 115.42C70.72 115.42 70.81 115.33 70.82 115.22L70.9 113.62L72.5 112.02C72.81 112.26 73.18 112.43 73.59 112.5V114.71L72.51 115.9C72.43 115.99 72.44 116.12 72.52 116.19C72.56 116.23 72.61 116.24 72.66 116.24C72.72 116.24 72.77 116.22 72.81 116.17L73.59 115.32V116.56C73.59 116.75 73.75 116.91 73.94 116.91C74.13 116.91 74.29 116.75 74.29 116.56V115.33L75.06 116.17C75.06 116.17 75.16 116.24 75.21 116.24C75.26 116.24 75.31 116.22 75.35 116.19C75.44 116.11 75.44 115.98 75.36 115.9L74.28 114.72V112.52C74.72 112.47 75.12 112.3 75.46 112.05L77.02 113.61L77.1 115.22C77.1 115.33 77.2 115.42 77.31 115.42C77.31 115.42 77.31 115.42 77.32 115.42C77.44 115.42 77.52 115.32 77.52 115.2L77.47 114.04L78.33 114.9C78.4 114.97 78.49 115 78.58 115C78.67 115 78.76 114.97 78.83 114.9C78.97 114.76 78.97 114.54 78.83 114.41L77.98 113.56L79.12 113.61C79.12 113.61 79.12 113.61 79.13 113.61C79.24 113.61 79.33 113.52 79.34 113.41C79.34 113.29 79.26 113.2 79.14 113.19L77.54 113.11L75.97 111.54C76.21 111.22 76.37 110.83 76.43 110.41H78.63L79.81 111.49C79.81 111.49 79.9 111.54 79.95 111.54C80.01 111.54 80.06 111.52 80.1 111.47C80.18 111.38 80.17 111.25 80.09 111.18L79.25 110.41H80.45C80.64 110.41 80.8 110.25 80.8 110.06C80.8 109.87 80.64 109.71 80.45 109.71H80.43ZM75.98 109.71H74.79L75.62 108.88C75.8 109.12 75.93 109.4 75.99 109.71H75.98ZM75.11 108.4L74.28 109.23V108.09C74.58 108.13 74.86 108.24 75.11 108.4ZM73.59 108.11V109.17L72.85 108.43C73.07 108.28 73.32 108.17 73.59 108.11ZM72.36 108.92L73.14 109.7H72.02C72.07 109.41 72.19 109.15 72.36 108.92ZM72.02 110.4H73.12L72.33 111.19C72.18 110.96 72.07 110.69 72.02 110.4ZM72.8 111.7L73.59 110.91V112.06C73.3 112 73.03 111.87 72.8 111.7ZM74.28 112.08V110.85L75.16 111.73C74.9 111.91 74.6 112.03 74.28 112.08ZM75.66 111.24L74.83 110.41H76C75.95 110.72 75.83 111 75.66 111.24Z" fill="url(#paint2_radial_1_55)"/>
<path d="M91.2 146.48H89.99L90.84 145.7C90.93 145.62 90.93 145.49 90.85 145.41C90.77 145.32 90.64 145.32 90.56 145.4L89.37 146.48H87.17C87.1 146.06 86.93 145.68 86.68 145.36L88.28 143.76L89.88 143.68C90 143.68 90.08 143.58 90.08 143.46C90.08 143.34 89.98 143.26 89.86 143.26L88.72 143.31L89.57 142.46C89.71 142.32 89.71 142.1 89.57 141.97C89.43 141.83 89.21 141.83 89.08 141.97L88.22 142.83L88.27 141.67C88.27 141.55 88.19 141.46 88.07 141.45C87.95 141.45 87.86 141.53 87.85 141.65L87.77 143.26L86.16 144.87C85.83 144.64 85.45 144.48 85.03 144.44V142.14L86.11 140.96C86.19 140.87 86.18 140.74 86.1 140.67C86.02 140.59 85.88 140.6 85.81 140.68L85.04 141.52V140.32C85.04 140.13 84.88 139.97 84.69 139.97C84.5 139.97 84.34 140.13 84.34 140.32V141.53L83.56 140.68C83.48 140.59 83.35 140.59 83.27 140.67C83.18 140.75 83.18 140.88 83.26 140.96L84.34 142.15V144.46C83.96 144.53 83.61 144.68 83.31 144.9L81.66 143.25L81.58 141.65C81.58 141.53 81.48 141.45 81.36 141.45C81.24 141.45 81.16 141.55 81.16 141.67L81.21 142.81L80.34 141.94C80.2 141.8 79.98 141.8 79.85 141.94C79.71 142.08 79.71 142.3 79.85 142.43L80.73 143.31L79.57 143.26C79.45 143.26 79.36 143.34 79.35 143.46C79.35 143.58 79.43 143.67 79.55 143.68L81.16 143.76L82.81 145.41C82.58 145.72 82.41 146.09 82.35 146.49H80.04L78.85 145.41C78.76 145.33 78.63 145.34 78.56 145.42C78.48 145.51 78.49 145.64 78.57 145.71L79.42 146.49H78.18C77.99 146.49 77.83 146.65 77.83 146.84C77.83 147.03 77.99 147.19 78.18 147.19H79.41L78.57 147.96C78.48 148.04 78.48 148.17 78.56 148.25C78.6 148.3 78.66 148.32 78.71 148.32C78.76 148.32 78.81 148.3 78.85 148.27L80.03 147.19H82.34C82.39 147.59 82.54 147.96 82.77 148.28L81.16 149.89L79.55 149.97C79.43 149.97 79.35 150.07 79.35 150.19C79.35 150.3 79.45 150.39 79.56 150.39C79.56 150.39 79.56 150.39 79.57 150.39L80.73 150.33L79.85 151.21C79.71 151.35 79.71 151.57 79.85 151.7C79.92 151.77 80.01 151.8 80.1 151.8C80.19 151.8 80.28 151.77 80.35 151.7L81.22 150.83L81.17 151.97C81.17 152.09 81.25 152.18 81.37 152.19C81.37 152.19 81.37 152.19 81.38 152.19C81.49 152.19 81.58 152.1 81.59 151.99L81.67 150.39L83.27 148.79C83.58 149.03 83.95 149.2 84.36 149.27V151.48L83.28 152.67C83.2 152.76 83.21 152.89 83.29 152.96C83.33 153 83.38 153.01 83.43 153.01C83.49 153.01 83.54 152.99 83.58 152.94L84.36 152.09V153.33C84.36 153.52 84.52 153.68 84.71 153.68C84.9 153.68 85.06 153.52 85.06 153.33V152.1L85.83 152.94C85.83 152.94 85.93 153.01 85.98 153.01C86.03 153.01 86.08 152.99 86.12 152.96C86.21 152.88 86.21 152.75 86.13 152.67L85.05 151.49V149.29C85.49 149.24 85.89 149.07 86.23 148.82L87.79 150.38L87.87 151.99C87.87 152.1 87.97 152.19 88.08 152.19C88.08 152.19 88.08 152.19 88.09 152.19C88.21 152.19 88.29 152.09 88.29 151.97L88.24 150.81L89.1 151.67C89.17 151.74 89.26 151.77 89.35 151.77C89.44 151.77 89.53 151.74 89.6 151.67C89.74 151.53 89.74 151.31 89.6 151.18L88.75 150.33L89.89 150.38C89.89 150.38 89.89 150.38 89.9 150.38C90.01 150.38 90.1 150.29 90.11 150.18C90.11 150.06 90.03 149.97 89.91 149.96L88.31 149.88L86.74 148.31C86.98 147.99 87.14 147.6 87.2 147.18H89.4L90.58 148.26C90.58 148.26 90.67 148.31 90.72 148.31C90.78 148.31 90.83 148.29 90.87 148.24C90.95 148.15 90.94 148.02 90.86 147.95L90.02 147.18H91.22C91.41 147.18 91.57 147.02 91.57 146.83C91.57 146.64 91.41 146.48 91.22 146.48H91.2ZM86.75 146.48H85.56L86.39 145.65C86.57 145.89 86.7 146.17 86.76 146.48H86.75ZM85.88 145.17L85.05 146V144.86C85.35 144.9 85.63 145.01 85.88 145.17ZM84.35 144.88V145.94L83.61 145.2C83.83 145.05 84.08 144.94 84.35 144.88ZM83.12 145.69L83.9 146.47H82.78C82.83 146.18 82.95 145.92 83.12 145.69ZM82.78 147.17H83.88L83.09 147.96C82.94 147.73 82.83 147.46 82.78 147.17ZM83.56 148.47L84.35 147.68V148.83C84.06 148.77 83.79 148.64 83.56 148.47ZM85.05 148.85V147.62L85.93 148.5C85.67 148.68 85.37 148.8 85.05 148.85ZM86.42 148.01L85.59 147.18H86.76C86.71 147.49 86.59 147.77 86.42 148.01Z" fill="url(#paint3_radial_1_55)"/>
<path d="M34.69 107.91H33.48L34.33 107.13C34.42 107.05 34.42 106.92 34.34 106.84C34.26 106.75 34.13 106.75 34.05 106.83L32.86 107.91H30.66C30.59 107.49 30.42 107.11 30.17 106.79L31.77 105.19L33.37 105.11C33.49 105.11 33.57 105.01 33.57 104.89C33.57 104.77 33.47 104.69 33.35 104.69L32.21 104.74L33.06 103.89C33.2 103.75 33.2 103.53 33.06 103.4C32.92 103.26 32.7 103.26 32.57 103.4L31.71 104.26L31.76 103.1C31.76 102.98 31.68 102.89 31.56 102.88C31.44 102.88 31.35 102.96 31.34 103.08L31.26 104.69L29.65 106.3C29.32 106.07 28.94 105.91 28.52 105.87V103.57L29.6 102.39C29.68 102.3 29.67 102.17 29.59 102.1C29.51 102.02 29.37 102.03 29.3 102.11L28.53 102.95V101.75C28.53 101.56 28.37 101.4 28.18 101.4C27.99 101.4 27.83 101.56 27.83 101.75V102.96L27.05 102.11C26.97 102.02 26.84 102.02 26.76 102.1C26.67 102.18 26.67 102.31 26.75 102.39L27.83 103.58V105.89C27.45 105.96 27.1 106.11 26.8 106.33L25.15 104.68L25.07 103.08C25.07 102.96 24.97 102.88 24.85 102.88C24.73 102.88 24.65 102.98 24.65 103.1L24.7 104.24L23.83 103.37C23.69 103.23 23.47 103.23 23.34 103.37C23.2 103.51 23.2 103.73 23.34 103.86L24.22 104.74L23.06 104.69C22.94 104.69 22.85 104.77 22.84 104.89C22.84 105.01 22.92 105.1 23.04 105.11L24.65 105.19L26.3 106.84C26.07 107.15 25.9 107.52 25.84 107.92H23.53L22.34 106.84C22.25 106.76 22.12 106.77 22.05 106.85C21.97 106.94 21.98 107.07 22.06 107.14L22.91 107.92H21.67C21.48 107.92 21.32 108.08 21.32 108.27C21.32 108.46 21.48 108.62 21.67 108.62H22.9L22.06 109.39C21.97 109.47 21.97 109.6 22.05 109.68C22.09 109.73 22.15 109.75 22.2 109.75C22.25 109.75 22.3 109.73 22.34 109.7L23.52 108.62H25.83C25.88 109.02 26.03 109.39 26.26 109.71L24.65 111.32L23.04 111.4C22.92 111.4 22.84 111.5 22.84 111.62C22.84 111.73 22.94 111.82 23.05 111.82C23.05 111.82 23.05 111.82 23.06 111.82L24.22 111.76L23.34 112.64C23.2 112.78 23.2 113 23.34 113.13C23.41 113.2 23.5 113.23 23.59 113.23C23.68 113.23 23.77 113.2 23.84 113.13L24.71 112.26L24.66 113.4C24.66 113.52 24.74 113.61 24.86 113.62C24.86 113.62 24.86 113.62 24.87 113.62C24.98 113.62 25.07 113.53 25.08 113.42L25.16 111.82L26.76 110.22C27.07 110.46 27.44 110.63 27.85 110.7V112.91L26.77 114.1C26.69 114.19 26.7 114.32 26.78 114.39C26.82 114.43 26.87 114.44 26.92 114.44C26.98 114.44 27.03 114.42 27.07 114.37L27.85 113.52V114.76C27.85 114.95 28.01 115.11 28.2 115.11C28.39 115.11 28.55 114.95 28.55 114.76V113.53L29.32 114.37C29.32 114.37 29.42 114.44 29.47 114.44C29.52 114.44 29.57 114.42 29.61 114.39C29.7 114.31 29.7 114.18 29.62 114.1L28.54 112.92V110.72C28.98 110.67 29.38 110.5 29.72 110.25L31.28 111.81L31.36 113.42C31.36 113.53 31.46 113.62 31.57 113.62C31.57 113.62 31.57 113.62 31.58 113.62C31.7 113.62 31.78 113.52 31.78 113.4L31.73 112.24L32.59 113.1C32.66 113.17 32.75 113.2 32.84 113.2C32.93 113.2 33.02 113.17 33.09 113.1C33.23 112.96 33.23 112.74 33.09 112.61L32.24 111.76L33.38 111.81C33.38 111.81 33.38 111.81 33.39 111.81C33.5 111.81 33.59 111.72 33.6 111.61C33.6 111.49 33.52 111.4 33.4 111.39L31.8 111.31L30.23 109.74C30.47 109.42 30.63 109.03 30.69 108.61H32.89L34.07 109.69C34.07 109.69 34.16 109.74 34.21 109.74C34.27 109.74 34.32 109.72 34.36 109.67C34.44 109.58 34.43 109.45 34.35 109.38L33.51 108.61H34.71C34.9 108.61 35.06 108.45 35.06 108.26C35.06 108.07 34.9 107.91 34.71 107.91H34.69ZM30.24 107.91H29.05L29.88 107.08C30.06 107.32 30.19 107.6 30.25 107.91H30.24ZM29.37 106.61L28.54 107.44V106.3C28.84 106.34 29.12 106.45 29.37 106.61ZM27.85 106.32V107.38L27.11 106.64C27.33 106.49 27.58 106.38 27.85 106.32ZM26.62 107.13L27.4 107.91H26.28C26.33 107.62 26.45 107.36 26.62 107.13ZM26.28 108.61H27.38L26.59 109.4C26.44 109.17 26.33 108.9 26.28 108.61ZM27.06 109.91L27.85 109.12V110.27C27.56 110.21 27.29 110.08 27.06 109.91ZM28.54 110.29V109.06L29.42 109.94C29.16 110.12 28.86 110.24 28.54 110.29ZM29.92 109.44L29.09 108.61H30.26C30.21 108.92 30.09 109.2 29.92 109.44Z" fill="url(#paint4_radial_1_55)"/>
<path d="M127.33 47.85C127.61 46.42 127.76 44.94 127.76 43.42C127.76 30.71 117.46 20.41 104.75 20.41C102.42 20.41 100.18 20.76 98.06 21.4C92.43 8.87002 79.85 0.130005 65.21 0.130005C45.87 0.130005 30.1 15.38 29.25 34.5C13.27 34.75 0.390015 47.77 0.390015 63.81C0.390015 79.85 12.68 92.27 28.14 93.09C28.35 93.12 28.57 93.13 28.79 93.13H125.46C125.46 93.13 125.5 93.13 125.52 93.13C125.56 93.13 125.6 93.13 125.63 93.13C138.15 93.13 148.31 82.98 148.31 70.45C148.31 57.92 139.06 48.71 127.32 47.84L127.33 47.85Z" fill="url(#paint5_radial_1_55)"/>
<defs>
<radialGradient id="paint0_radial_1_55" cx="0" cy="0" r="1" gradientUnits="userSpaceOnUse" gradientTransform="translate(49.04 133.15) scale(12.01 12.01)">
<stop offset="0.16" stop-color="#FEFEFE"/>
<stop offset="0.37" stop-color="#F6F5F4"/>
<stop offset="0.74" stop-color="#E2DED9"/>
<stop offset="1" stop-color="#D1CBC3"/>
</radialGradient>
<radialGradient id="paint1_radial_1_55" cx="0" cy="0" r="1" gradientUnits="userSpaceOnUse" gradientTransform="translate(112.5 115.43) scale(15.82 15.82)">
<stop offset="0.16" stop-color="#FEFEFE"/>
<stop offset="0.37" stop-color="#F6F5F4"/>
<stop offset="0.74" stop-color="#E2DED9"/>
<stop offset="1" stop-color="#D1CBC3"/>
</radialGradient>
<radialGradient id="paint2_radial_1_55" cx="0" cy="0" r="1" gradientUnits="userSpaceOnUse" gradientTransform="translate(73.93 110.05) scale(6.85 6.84998)">
<stop offset="0.16" stop-color="#FEFEFE"/>
<stop offset="0.37" stop-color="#F6F5F4"/>
<stop offset="0.74" stop-color="#E2DED9"/>
<stop offset="1" stop-color="#D1CBC3"/>
</radialGradient>
<radialGradient id="paint3_radial_1_55" cx="0" cy="0" r="1" gradientUnits="userSpaceOnUse" gradientTransform="translate(84.7 146.82) scale(6.85 6.85001)">
<stop offset="0.16" stop-color="#FEFEFE"/>
<stop offset="0.37" stop-color="#F6F5F4"/>
<stop offset="0.74" stop-color="#E2DED9"/>
<stop offset="1" stop-color="#D1CBC3"/>
</radialGradient>
<radialGradient id="paint4_radial_1_55" cx="0" cy="0" r="1" gradientUnits="userSpaceOnUse" gradientTransform="translate(28.19 108.26) scale(6.85 6.84998)">
<stop offset="0.16" stop-color="#FEFEFE"/>
<stop offset="0.37" stop-color="#F6F5F4"/>
<stop offset="0.74" stop-color="#E2DED9"/>
<stop offset="1" stop-color="#D1CBC3"/>
</radialGradient>
<radialGradient id="paint5_radial_1_55" cx="0" cy="0" r="1" gradientUnits="userSpaceOnUse" gradientTransform="translate(52.85 40.9) scale(84.07 84.07)">
<stop offset="0.16" stop-color="#FEFEFE"/>
<stop offset="0.37" stop-color="#F6F5F4"/>
<stop offset="0.74" stop-color="#E2DED9"/>
<stop offset="1" stop-color="#D1CBC3"/>
</radialGradient>
</defs>
</svg>
