<svg width="147" height="147" viewBox="0 0 147 147" fill="none" xmlns="http://www.w3.org/2000/svg">
<g filter="url(#filter0_d_1_4)">
<path d="M69.08 132.33L53.52 116.84L31.65 114.97L29.69 93.1L14.13 77.61L26.69 59.6L24.73 37.74L45.92 32.01L58.48 14L78.39 23.24L99.58 17.51L108.9 37.39L128.82 46.63L123.18 67.84L132.5 87.72L114.54 100.35L108.91 121.57L87.03 119.7L69.08 132.33Z" fill="url(#paint0_linear_1_4)"/>
</g>
<g filter="url(#filter1_d_1_4)">
<path d="M73.2801 118.97C98.5305 118.97 119 98.5005 119 73.25C119 47.9995 98.5305 27.53 73.2801 27.53C48.0296 27.53 27.5601 47.9995 27.5601 73.25C27.5601 98.5005 48.0296 118.97 73.2801 118.97Z" fill="url(#paint1_linear_1_4)"/>
</g>
<defs>
<filter id="filter0_d_1_4" x="0.130005" y="0" width="146.37" height="146.33" filterUnits="userSpaceOnUse" color-interpolation-filters="sRGB">
<feFlood flood-opacity="0" result="BackgroundImageFix"/>
<feColorMatrix in="SourceAlpha" type="matrix" values="0 0 0 0 0 0 0 0 0 0 0 0 0 0 0 0 0 0 127 0" result="hardAlpha"/>
<feOffset/>
<feGaussianBlur stdDeviation="7"/>
<feColorMatrix type="matrix" values="0 0 0 0 0.980392 0 0 0 0 0.733333 0 0 0 0 0.254902 0 0 0 0.34 0"/>
<feBlend mode="normal" in2="BackgroundImageFix" result="effect1_dropShadow_1_4"/>
<feBlend mode="normal" in="SourceGraphic" in2="effect1_dropShadow_1_4" result="shape"/>
</filter>
<filter id="filter1_d_1_4" x="19.5601" y="18.53" width="111.44" height="111.44" filterUnits="userSpaceOnUse" color-interpolation-filters="sRGB">
<feFlood flood-opacity="0" result="BackgroundImageFix"/>
<feColorMatrix in="SourceAlpha" type="matrix" values="0 0 0 0 0 0 0 0 0 0 0 0 0 0 0 0 0 0 127 0" result="hardAlpha"/>
<feOffset dx="2" dy="1"/>
<feGaussianBlur stdDeviation="5"/>
<feColorMatrix type="matrix" values="0 0 0 0 0.239216 0 0 0 0 0.152941 0 0 0 0 0.0352941 0 0 0 0.32 0"/>
<feBlend mode="normal" in2="BackgroundImageFix" result="effect1_dropShadow_1_4"/>
<feBlend mode="normal" in="SourceGraphic" in2="effect1_dropShadow_1_4" result="shape"/>
</filter>
<linearGradient id="paint0_linear_1_4" x1="32.273" y1="30.5256" x2="91.9521" y2="93.0855" gradientUnits="userSpaceOnUse">
<stop stop-color="#FABB41"/>
<stop offset="0.24" stop-color="#F9B43C"/>
<stop offset="0.57" stop-color="#F8A330"/>
<stop offset="0.95" stop-color="#F7861D"/>
<stop offset="1" stop-color="#F7821A"/>
</linearGradient>
<linearGradient id="paint1_linear_1_4" x1="27.896" y1="67.4574" x2="118.629" y2="79.0483" gradientUnits="userSpaceOnUse">
<stop stop-color="white"/>
<stop offset="0.11" stop-color="#FFF5DF"/>
<stop offset="0.23" stop-color="#FFEDC6"/>
<stop offset="0.36" stop-color="#FFE6B2"/>
<stop offset="0.51" stop-color="#FFE2A3"/>
<stop offset="0.69" stop-color="#FFDF9B"/>
<stop offset="1" stop-color="#FFDF99"/>
</linearGradient>
</defs>
</svg>
