<svg width="192" height="188" viewBox="0 0 192 188" fill="none" xmlns="http://www.w3.org/2000/svg">
<g opacity="0.95" filter="url(#filter0_d_1_31)">
<path d="M98.23 37.41C98.05 36.46 97.95 35.48 97.95 34.48C97.95 26.06 104.77 19.24 113.19 19.24C114.73 19.24 116.22 19.47 117.62 19.9C121.35 11.6 129.68 5.81 139.38 5.81C152.19 5.81 162.63 15.91 163.2 28.58C173.79 28.74 182.32 37.37 182.32 47.99C182.32 58.61 174.18 66.84 163.94 67.38C163.8 67.4 163.65 67.41 163.51 67.41H99.48C99.48 67.41 99.46 67.41 99.44 67.41C99.41 67.41 99.39 67.41 99.36 67.41C91.06 67.41 84.34 60.68 84.34 52.39C84.34 44.47 90.47 37.99 98.24 37.41H98.23Z" fill="url(#paint0_radial_1_31)"/>
<path d="M132.92 56.48C133.2 55.05 133.35 53.57 133.35 52.05C133.35 39.34 123.05 29.04 110.34 29.04C108.01 29.04 105.77 29.39 103.65 30.03C98.02 17.5 85.44 8.76001 70.8 8.76001C51.46 8.76001 35.69 24.01 34.84 43.13C18.86 43.38 5.97998 56.4 5.97998 72.44C5.97998 88.48 18.27 100.9 33.73 101.72C33.94 101.75 34.16 101.76 34.38 101.76H131.05C131.05 101.76 131.09 101.76 131.11 101.76C131.15 101.76 131.19 101.76 131.22 101.76C143.74 101.76 153.9 91.61 153.9 79.08C153.9 66.55 144.65 57.34 132.91 56.47L132.92 56.48Z" fill="url(#paint1_radial_1_31)"/>
<path d="M26.45 130.73C26.45 134.74 23.2 138 19.18 138C15.16 138 11.91 134.75 11.91 130.73C11.91 126.71 19.18 114.25 19.18 114.25C19.18 114.25 26.45 126.71 26.45 130.73Z" fill="url(#paint2_radial_1_31)"/>
<path d="M104.15 171.63C104.15 175.64 100.9 178.9 96.88 178.9C92.86 178.9 89.61 175.65 89.61 171.63C89.61 167.61 96.88 155.15 96.88 155.15C96.88 155.15 104.15 167.61 104.15 171.63Z" fill="url(#paint3_radial_1_31)"/>
<path d="M137.03 128.62C137.03 130.7 135.35 132.38 133.27 132.38C131.19 132.38 129.51 130.7 129.51 128.62C129.51 126.54 133.27 120.1 133.27 120.1C133.27 120.1 137.03 126.55 137.03 128.62Z" fill="url(#paint4_radial_1_31)"/>
<path d="M37.52 169.52C37.52 171.6 35.84 173.28 33.76 173.28C31.68 173.28 30 171.6 30 169.52C30 167.44 33.76 161 33.76 161C33.76 161 37.52 167.45 37.52 169.52Z" fill="url(#paint5_radial_1_31)"/>
<g filter="url(#filter1_d_1_31)">
<path d="M96.24 83.83H75.61L54.99 119.71H66.38L53.19 161.86L94.45 111.64H80.26L96.24 83.83Z" fill="url(#paint6_linear_1_31)"/>
</g>
</g>
<defs>
<filter id="filter0_d_1_31" x="0.97998" y="0.809998" width="190.34" height="187.09" filterUnits="userSpaceOnUse" color-interpolation-filters="sRGB">
<feFlood flood-opacity="0" result="BackgroundImageFix"/>
<feColorMatrix in="SourceAlpha" type="matrix" values="0 0 0 0 0 0 0 0 0 0 0 0 0 0 0 0 0 0 127 0" result="hardAlpha"/>
<feOffset dx="2" dy="2"/>
<feGaussianBlur stdDeviation="3.5"/>
<feComposite in2="hardAlpha" operator="out"/>
<feColorMatrix type="matrix" values="0 0 0 0 0.6521 0 0 0 0 0.6521 0 0 0 0 0.6521 0 0 0 0.29 0"/>
<feBlend mode="normal" in2="BackgroundImageFix" result="effect1_dropShadow_1_31"/>
<feBlend mode="normal" in="SourceGraphic" in2="effect1_dropShadow_1_31" result="shape"/>
</filter>
<filter id="filter1_d_1_31" x="39.19" y="69.83" width="71.05" height="106.03" filterUnits="userSpaceOnUse" color-interpolation-filters="sRGB">
<feFlood flood-opacity="0" result="BackgroundImageFix"/>
<feColorMatrix in="SourceAlpha" type="matrix" values="0 0 0 0 0 0 0 0 0 0 0 0 0 0 0 0 0 0 127 0" result="hardAlpha"/>
<feOffset/>
<feGaussianBlur stdDeviation="7"/>
<feColorMatrix type="matrix" values="0 0 0 0 0.980392 0 0 0 0 0.733333 0 0 0 0 0.254902 0 0 0 0.34 0"/>
<feBlend mode="normal" in2="BackgroundImageFix" result="effect1_dropShadow_1_31"/>
<feBlend mode="normal" in="SourceGraphic" in2="effect1_dropShadow_1_31" result="shape"/>
</filter>
<radialGradient id="paint0_radial_1_31" cx="0" cy="0" r="1" gradientUnits="userSpaceOnUse" gradientTransform="translate(140.32 3.88) rotate(180) scale(42.65 42.65)">
<stop stop-color="#D1CBC3"/>
<stop offset="0.35" stop-color="#C7C1B9"/>
<stop offset="0.94" stop-color="#ACA69F"/>
<stop offset="1" stop-color="#AAA49D"/>
</radialGradient>
<radialGradient id="paint1_radial_1_31" cx="0" cy="0" r="1" gradientUnits="userSpaceOnUse" gradientTransform="translate(58.45 49.54) scale(84.07 84.07)">
<stop offset="0.16" stop-color="#FEFEFE"/>
<stop offset="0.37" stop-color="#F6F5F4"/>
<stop offset="0.74" stop-color="#E2DED9"/>
<stop offset="1" stop-color="#D1CBC3"/>
</radialGradient>
<radialGradient id="paint2_radial_1_31" cx="0" cy="0" r="1" gradientUnits="userSpaceOnUse" gradientTransform="translate(19.18 126.12) scale(9.84001 9.84)">
<stop stop-color="#7DBAC7"/>
<stop offset="0.45" stop-color="#7AB8C5"/>
<stop offset="0.7" stop-color="#72B4C1"/>
<stop offset="0.89" stop-color="#65AEB9"/>
<stop offset="1" stop-color="#59A8B2"/>
</radialGradient>
<radialGradient id="paint3_radial_1_31" cx="0" cy="0" r="1" gradientUnits="userSpaceOnUse" gradientTransform="translate(96.88 167.03) scale(9.84001 9.84)">
<stop stop-color="#7DBAC7"/>
<stop offset="0.45" stop-color="#7AB8C5"/>
<stop offset="0.7" stop-color="#72B4C1"/>
<stop offset="0.89" stop-color="#65AEB9"/>
<stop offset="1" stop-color="#59A8B2"/>
</radialGradient>
<radialGradient id="paint4_radial_1_31" cx="0" cy="0" r="1" gradientUnits="userSpaceOnUse" gradientTransform="translate(133.26 126.24) scale(5.08999 5.09001)">
<stop stop-color="#7DBAC7"/>
<stop offset="0.45" stop-color="#7AB8C5"/>
<stop offset="0.7" stop-color="#72B4C1"/>
<stop offset="0.89" stop-color="#65AEB9"/>
<stop offset="1" stop-color="#59A8B2"/>
</radialGradient>
<radialGradient id="paint5_radial_1_31" cx="0" cy="0" r="1" gradientUnits="userSpaceOnUse" gradientTransform="translate(33.75 167.14) scale(5.08999 5.09001)">
<stop stop-color="#7DBAC7"/>
<stop offset="0.45" stop-color="#7AB8C5"/>
<stop offset="0.7" stop-color="#72B4C1"/>
<stop offset="0.89" stop-color="#65AEB9"/>
<stop offset="1" stop-color="#59A8B2"/>
</radialGradient>
<linearGradient id="paint6_linear_1_31" x1="53.19" y1="122.85" x2="96.24" y2="122.85" gradientUnits="userSpaceOnUse">
<stop stop-color="#FABB41"/>
<stop offset="0.24" stop-color="#F9B43C"/>
<stop offset="0.57" stop-color="#F8A330"/>
<stop offset="0.95" stop-color="#F7861D"/>
<stop offset="1" stop-color="#F7821A"/>
</linearGradient>
</defs>
</svg>
